<svg xmlns="http://www.w3.org/2000/svg" width="225" height="225" fill="none" viewBox="0 0 225 225">
  <path fill="gold" d="M219.205 77.195c0-1.238-.56-2.423-1.202-3.456-.988-1.456-2.571-2.477-4.283-2.854-.606-.112-1.321-.228-1.914-.07a.026.026 0 0 0-.009.006c-.087.089-.018.254.109.25 3.088-.167 5.873 1.88 6.642 4.798.151.477.224 1.07.271 1.403.017.065.045.135.105.17.163.089.286-.098.281-.247Z"/>
  <path fill="gold" d="M205.705 77.195c0-1.238.56-2.423 1.203-3.456.988-1.456 2.571-2.477 4.283-2.854.605-.112 1.32-.228 1.914-.07a.02.02 0 0 1 .009.006c.086.089.017.254-.11.25-3.088-.167-5.873 1.88-6.644 4.798-.15.477-.223 1.07-.27 1.403-.018.065-.044.135-.105.17-.161.089-.284-.098-.28-.247Zm8.016 7.146c1.711-.378 3.295-1.4 4.283-2.854.6-.967 1.125-2.069 1.189-3.22.001-.005.001-.01.003-.013.113-.57.024-1.178-.161-1.72-.116-.167-.396-.026-.334.167.052.26.068.803.091 1.226.008.075.009.143.006.206v.003c-.049.34-.119.822-.247 1.225-.77 2.917-3.555 4.965-6.642 4.797-.127-.004-.195.16-.109.25l.009.006c.591.156 1.308.04 1.912-.073Z"/>
  <path fill="gold" d="M213.111 84.41c.092-.088.024-.259-.106-.254-3.088.167-5.873-1.88-6.644-4.797-.123-.388-.192-.853-.241-1.192l-.001-.021c-.006-.495.017-1.017.019-1.49a.146.146 0 0 0-.037-.104c-.092-.091-.281-.037-.295.111a5.297 5.297 0 0 0-.093 1.3.235.235 0 0 0-.008.068c0 1.24.56 2.423 1.203 3.457.987 1.455 2.571 2.476 4.283 2.854.607.113 1.325.229 1.92.068Z"/>
  <path fill="gold" d="M216.458 82.263a6.671 6.671 0 0 1-4.635 1.357c-.02-.002-.02-.031 0-.034a9.292 9.292 0 0 0 1.755-.37c1.751-.494 3.325-1.718 4.096-3.38.009-.018-.019-.033-.03-.015-1.039 1.684-2.715 2.508-4.59 2.782-.811.132-1.731.194-2.653.077-.02-.003-.019-.033.001-.033 2.257-.1 4.561-1.158 5.916-2.803.014-.017-.009-.038-.024-.023-1.829 1.742-4.743 2.357-7.117 1.875.248-.009.497-.027.741-.06a9.756 9.756 0 0 0 4.546-2.103c.016-.014-.002-.038-.019-.027-1.837 1.183-4.032 1.619-5.97 1.335-.018-.002-.019-.028-.002-.032 1.802-.53 3.543-1.494 4.817-2.659.016-.014-.004-.038-.022-.026-1.625 1.11-3.505 1.637-5.455 1.995-.019.004-.028-.022-.01-.031 1.72-.869 3.262-2.046 4.854-3.129.016-.011.002-.038-.017-.03-1.421.69-2.824 1.413-4.263 2.057-.227.103-.509.215-.815.335-.015.007-.03-.013-.019-.026.589-.707 1.196-1.379 1.722-1.77a12.872 12.872 0 0 1 3.363-1.675c.021-.007.013-.037-.008-.033-1.369.284-2.761.66-3.954 1.4l-.001.002c-.261.188-.515.39-.764.602 1.246-1.608 3.062-2.844 5.275-3.28.022-.004.017-.034-.004-.033-1.906.117-3.858.894-5.3 2.17.12-.171.237-.329.341-.46.921-1.197 2.097-1.856 3.447-2.325.757-.237 1.502-.457 2.278-.432.021.002.025-.03.003-.032-.554-.081-1.126-.026-1.679.034a8.87 8.87 0 0 0-3.125.932c-.04.023-.078.047-.118.072.16-.125.32-.247.476-.368 1.5-1.093 3.231-1.89 5.062-1.39.02.007.03-.024.01-.03-1.835-.69-3.948-.167-5.588.837.17-.129.349-.256.55-.38 1.795-1.093 4.23-1.776 6.281-.659.019.01.036-.017.018-.03-2.166-1.517-5.252-1.141-7.371.31-.778.51-1.366 1.244-1.852 2.033l-.001.002-.123.3c-.186.504-.379 1.01-.51 1.53l-.002.004c-.023.85.098 1.718.237 2.531.063.368.135.733.215 1.096l.001.003c.051.117.106.232.163.347l.001.002c.179.28.359.56.558.828.336.455.699.892 1.091 1.3.205.212.427.394.659.557.002 0 .002.002.003.002a26.17 26.17 0 0 0 .558.276 8.517 8.517 0 0 0 2.607.605h.004c1.633-.125 3.254-.81 4.392-1.91Z"/>
  <path fill="#FFFDD0" d="M23.168 132.388h-1.06c-.406 0-.607-.227-.607-.682v-45.32c0-.403-.227-.606-.682-.606H9.15c-.455 0-.682-.201-.682-.606v-.91c0-.403.227-.606.681-.606h26.98c.455 0 .682.203.682.607v.909c0 .405-.227.606-.682.606H24.456c-.454 0-.681.203-.681.606v45.32c0 .455-.203.682-.607.682Zm34.632 0h-1.062c-.405 0-.606-.227-.606-.682V94.42c0-.454.201-.682.606-.682H57.8c.404 0 .607.228.607.682v3.274c0 .075.06.136.136.136h.056a.19.19 0 0 0 .165-.097c.564-.973 1.518-1.875 2.863-2.708 1.39-.858 3.195-1.288 5.42-1.288h3.031c.455 0 .682.203.682.607v.909c0 .405-.227.606-.682.606H66.97c-2.576 0-4.648.809-6.214 2.425-1.568 1.618-2.35 3.815-2.35 6.594v26.828c0 .455-.203.682-.607.682Zm29.178 0h-6.441c-3.083 0-5.546-.934-7.39-2.804-1.845-1.868-2.766-4.369-2.766-7.502v-18.037c0-3.132.921-5.633 2.766-7.503 1.844-1.869 4.307-2.804 7.39-2.804h6.441c3.082 0 5.544.936 7.39 2.804 1.843 1.87 2.766 4.371 2.766 7.503v18.037c0 3.133-.923 5.634-2.767 7.502-1.845 1.87-4.307 2.804-7.389 2.804Zm-6.441-2.122h6.441c2.526 0 4.471-.731 5.836-2.198 1.364-1.465 2.046-3.487 2.046-6.063V104.12c0-2.576-.682-4.597-2.046-6.063-1.365-1.465-3.31-2.198-5.836-2.198h-6.441c-2.527 0-4.471.734-5.836 2.198-1.364 1.466-2.046 3.487-2.046 6.063v17.885c0 2.576.681 4.598 2.046 6.063 1.365 1.466 3.309 2.198 5.836 2.198Zm46.167 2.104h-6.442c-3.082 0-5.545-.934-7.389-2.804-1.845-1.868-2.766-4.369-2.766-7.502v-18.037c0-3.132.921-5.633 2.766-7.503 1.844-1.869 4.307-2.804 7.389-2.804h6.442c3.082 0 5.544.936 7.389 2.804 1.844 1.87 2.767 4.371 2.767 7.503v18.036c0 3.133-.923 5.634-2.767 7.502-1.845 1.87-4.309 2.805-7.389 2.805Zm-6.442-2.122h6.442c2.526 0 4.471-.731 5.836-2.198 1.364-1.465 2.046-3.487 2.046-6.063v-17.885c0-2.576-.682-4.597-2.046-6.063-1.365-1.465-3.31-2.198-5.836-2.198h-6.442c-2.526 0-4.47.734-5.835 2.198-1.365 1.466-2.046 3.487-2.046 6.063v17.885c0 2.576.681 4.598 2.046 6.063 1.364 1.466 3.309 2.198 5.835 2.198Z"/>
  <path fill="gold" d="M160.352 132.37h-8.185c-3.486 0-6.226-.986-8.222-2.956-1.997-1.969-2.994-4.723-2.994-8.26V94.857c0-3.536.997-6.29 2.994-8.261 1.996-1.97 4.736-2.956 8.222-2.956h8.185c3.486 0 6.214.998 8.184 2.994 1.97 1.997 2.956 4.736 2.956 8.223v3.107c0 .758-.355 1.136-1.061 1.136h-3.41c-.708 0-1.061-.379-1.061-1.136v-2.88c0-4.395-2.097-6.594-6.29-6.594h-6.896c-4.194 0-6.29 2.199-6.29 6.594v25.842c0 4.396 2.096 6.594 6.29 6.594h6.896c4.193 0 6.29-2.198 6.29-6.594v-8.488c0-.504-.227-.758-.682-.758h-7.502c-.708 0-1.061-.329-1.061-.986v-2.803c0-.707.353-1.061 1.061-1.061h12.201c1.011 0 1.516.531 1.516 1.592v12.732c0 3.537-.986 6.289-2.956 8.26s-4.699 2.956-8.185 2.956Zm36.225 0h-9.018c-3.487 0-6.227-.986-8.223-2.956-1.997-1.969-2.993-4.723-2.993-8.26V94.857c0-3.536.996-6.29 2.993-8.261 1.996-1.97 4.736-2.956 8.223-2.956h9.018c3.486 0 6.226.998 8.222 2.994 1.996 1.997 2.994 4.736 2.994 8.223v26.297c0 3.486-.998 6.226-2.994 8.222-1.995 1.997-4.736 2.994-8.222 2.994Zm-8.412-4.85h7.73c4.244 0 6.366-2.198 6.366-6.594V95.084c0-4.395-2.121-6.594-6.366-6.594h-7.73c-4.194 0-6.29 2.199-6.29 6.594v25.842c0 4.396 2.096 6.594 6.29 6.594Z"/>
  <path fill="#FFFDD0" d="M42.42 132.388h-5.406c-2.973 0-5.346-.936-7.125-2.81s-2.667-4.38-2.667-7.52v-18.079c0-3.138.888-5.646 2.667-7.52 1.777-1.874 4.152-2.81 7.125-2.81h15.052c.39 0 .585.228.585.683v37.373c0 .455-.196.684-.585.684h-1.023c-.39 0-.584-.229-.584-.684v-3.142a.123.123 0 0 0-.124-.124h-.095a.123.123 0 0 0-.108.065c-1.374 2.59-3.944 3.884-7.712 3.884Zm8.037-10.027V96.383c0-.405-.219-.607-.658-.607H37.014c-2.437 0-4.311.734-5.627 2.203-1.315 1.469-1.973 3.494-1.973 6.077v17.927c0 2.583.658 4.609 1.973 6.077 1.316 1.469 3.19 2.203 5.627 2.203h5.26c2.436 0 4.408-.684 5.919-2.051 1.51-1.369 2.264-3.318 2.264-5.851Zm53.327 10.009h-1.079c-.412 0-.617-.232-.617-.694V78.87c0-.462.205-.694.617-.694h1.079c.41 0 .616.232.616.694v52.806c.001.462-.206.694-.616.694Z"/>
</svg>
